<svg width="30" height="30" viewBox="0 0 30 30" fill="none" xmlns="http://www.w3.org/2000/svg">
<circle cx="15" cy="15" r="15" fill="#5F47D9"/>
<path d="M13.9286 13.9283L18.5714 9.64258L23.5714 14.9997V23.9283H19.6429V19.6426H16.7857V23.9283H12.5V16.4283" stroke="white" stroke-linecap="round"/>
<circle opacity="0.3" cx="11.4285" cy="11.4291" r="5.71429" fill="white"/>
<path d="M13.5715 8.93978C13.5715 8.73765 13.4124 8.57227 13.2179 8.57227H9.63958C9.4451 8.57227 9.28599 8.73765 9.28599 8.93978C9.28599 9.14192 9.4451 9.3073 9.63958 9.3073H10.665C11.1777 9.31098 11.6303 9.64909 11.7929 10.1526H9.63958C9.4451 10.1526 9.28599 10.318 9.28599 10.5201C9.28599 10.7222 9.4451 10.8876 9.63958 10.8876H11.7929C11.7364 11.0787 11.6338 11.2552 11.4995 11.3985C11.2802 11.6337 10.9797 11.766 10.665 11.7697H9.63958C9.45217 11.7623 9.29306 11.9167 9.28599 12.1115C9.28245 12.2144 9.32135 12.3173 9.3956 12.3871L11.9556 14.9009C12.097 15.0406 12.3233 15.0332 12.4541 14.8826C12.585 14.7429 12.5814 14.5187 12.4471 14.3827C12.4435 14.3791 12.44 14.3791 12.44 14.3754L10.5271 12.5047H10.6614C11.1635 12.501 11.6444 12.2916 11.998 11.9204C12.2703 11.641 12.4541 11.2809 12.5178 10.8876H13.2179C13.4124 10.8876 13.5715 10.7222 13.5715 10.5201C13.5715 10.318 13.4124 10.1526 13.2179 10.1526H12.5178C12.4683 9.8402 12.3339 9.54619 12.1324 9.3073H13.2144C13.4124 9.3073 13.5715 9.14192 13.5715 8.93978Z" fill="white"/>
</svg>
