<svg width="42" height="42" viewBox="0 0 42 42" fill="none" xmlns="http://www.w3.org/2000/svg">
<circle cx="21" cy="21" r="21" fill="#5F47DD"/>
<path d="M15.228 23.456C18.6676 23.456 21.456 20.6676 21.456 17.228C21.456 13.7884 18.6676 11 15.228 11C11.7884 11 9 13.7884 9 17.228C9 20.6676 11.7884 23.456 15.228 23.456Z" fill="white" fill-opacity="0.6"/>
<path d="M22.5614 15.336C22.7204 15.182 22.9614 15.169 23.1354 15.292L23.2054 15.352L28.9504 21.53C29.0084 21.592 29.0464 21.67 29.0624 21.752L29.0704 21.836V30.521C29.0704 30.743 28.9104 30.927 28.6994 30.964L28.6174 30.971L23.8804 30.944C23.6604 30.943 23.4784 30.784 23.4404 30.574L23.4334 30.494V29.756C23.4334 29.507 23.6344 29.306 23.8834 29.306C24.1034 29.306 24.2884 29.466 24.3264 29.676L24.3334 29.756L24.3324 30.047L28.1694 30.068V22.012L22.8584 16.302L16.9644 22.026V30.07L20.8234 30.066V26.123C20.8234 25.903 20.9834 25.718 21.1934 25.68L21.2734 25.673H23.8834C24.1034 25.673 24.2884 25.833 24.3264 26.043L24.3334 26.123V27.716C24.3334 27.965 24.1324 28.166 23.8834 28.166C23.6634 28.166 23.4784 28.006 23.4404 27.796L23.4334 27.716L23.4324 26.573H21.7224L21.7234 30.515C21.7234 30.735 21.5644 30.919 21.3544 30.958L21.2744 30.965L16.5164 30.971C16.2944 30.971 16.1104 30.812 16.0724 30.602L16.0654 30.521V21.836C16.0654 21.745 16.0934 21.656 16.1434 21.582L16.2014 21.513L22.5614 15.336Z" fill="white"/>
</svg>
