<svg width="34" height="34" viewBox="0 0 34 34" fill="none" xmlns="http://www.w3.org/2000/svg">
<circle cx="17" cy="17" r="15" fill="#FEDC00"/>
<path d="M26 18.249C25.9987 16.9723 25.3138 15.793 24.2029 15.1546C24.2029 13.2571 23.4456 11.4372 22.0975 10.0956C20.7495 8.7538 18.9211 8 17.0148 8C15.1084 8 13.28 8.7538 11.932 10.0956C10.5839 11.4373 9.82661 13.2571 9.82661 15.1546C8.93705 15.6546 8.30339 16.5078 8.08398 17.5009C7.86443 18.4941 8.07997 19.5332 8.67656 20.3586C9.27319 21.184 10.1946 21.7177 11.2103 21.8263H11.3181C11.5385 21.8234 11.7505 21.7431 11.9171 21.5998C12.115 21.4268 12.2267 21.1762 12.2227 20.9141V15.5839C12.2231 15.329 12.1141 15.0862 11.9232 14.9162C11.731 14.738 11.472 14.6492 11.2104 14.6717C11.1578 14.6808 11.1058 14.6928 11.0546 14.7075C11.2029 13.2367 11.8948 11.8732 12.9962 10.8815C14.0976 9.88974 15.5297 9.3406 17.0148 9.3406C18.4998 9.3406 19.9321 9.8897 21.0333 10.8815C22.1347 11.8731 22.8266 13.2366 22.9749 14.7075C22.9237 14.6928 22.8717 14.6808 22.8192 14.6717C22.561 14.6427 22.3025 14.7228 22.1064 14.8924C21.9154 15.0622 21.8065 15.3052 21.8069 15.5601V20.8903C21.8064 21.1453 21.9154 21.3882 22.1064 21.5581C22.273 21.7016 22.4851 21.7819 22.7054 21.7847H22.8131C22.8759 21.7743 22.9379 21.7603 22.9989 21.743V23.0189C22.9989 23.177 22.9358 23.3287 22.8234 23.4405C22.7111 23.5523 22.5587 23.6151 22.3999 23.6151H19.902C19.7783 23.2672 19.5497 22.9658 19.2472 22.7523C18.9448 22.5389 18.5835 22.4237 18.2127 22.4227H15.8166C15.1745 22.4227 14.5813 22.7636 14.2604 23.317C13.9393 23.8704 13.9393 24.5523 14.2604 25.1057C14.5813 25.659 15.1745 26 15.8166 26H18.2127C18.5835 25.9989 18.9448 25.8838 19.2472 25.6703C19.5497 25.4569 19.7783 25.1554 19.902 24.8076H22.4058C22.8825 24.8076 23.3395 24.6191 23.6766 24.2837C24.0136 23.9482 24.2029 23.4934 24.2029 23.0189V21.3375C25.3119 20.7003 25.9965 19.5237 26 18.2491L26 18.249ZM11.0245 20.5564C10.3359 20.3773 9.76298 19.9027 9.4609 19.2613C9.15885 18.6199 9.15885 17.878 9.4609 17.2366C9.76295 16.5952 10.3359 16.1207 11.0245 15.9415V20.5564ZM18.2127 24.8073H15.8167C15.6026 24.8073 15.4049 24.6937 15.2979 24.5092C15.1909 24.3247 15.1909 24.0974 15.2979 23.913C15.4049 23.7285 15.6026 23.6149 15.8167 23.6149H18.2127C18.4268 23.6149 18.6246 23.7285 18.7315 23.913C18.8385 24.0974 18.8385 24.3247 18.7315 24.5092C18.6246 24.6936 18.4268 24.8073 18.2127 24.8073ZM23.0049 20.5564V15.9416C23.6935 16.1208 24.2664 16.5954 24.5685 17.2367C24.8706 17.8782 24.8706 18.62 24.5685 19.2615C24.2665 19.9028 23.6935 20.3774 23.0049 20.5565V20.5564Z" fill="#222222" stroke="#818284" stroke-width="0.2"/>
</svg>
