<svg xmlns:xlink="http://www.w3.org/1999/xlink" xmlns="http://www.w3.org/2000/svg" class="logo" width="105" height="49" viewBox="0 0 105 49" fill="none"><path d="M49.5808 22.3144C51.6543 22.3144 53.0219 21.0006 53.0219 19.0071C53.0219 16.9683 51.6543 15.6997 49.5808 15.6997C47.5074 15.6997 46.1397 16.9683 46.1397 19.0071C46.1397 21.0006 47.5074 22.3144 49.5808 22.3144ZM52.7131 25.6671H43.5369V27.6606H45.7427C46.5368 27.6606 46.9338 28.1137 46.9338 29.1104V45.1035C46.9338 46.1003 46.5368 46.5533 45.7427 46.5533H43.5369V48.5468H56.1542V46.5533H53.9043C53.1543 46.5533 52.7131 46.1003 52.7131 45.1035V25.6671Z" fill="#E25215"></path><path d="M71.6794 46.5533H68.7677C67.9736 46.5533 67.5766 46.1003 67.5766 45.1035V34.0488C68.8118 30.968 70.8853 28.4761 73.1353 28.4761C73.4 28.4761 73.6647 28.5214 73.797 28.612C73.4441 28.8839 73.2235 29.3822 73.2235 29.9259C73.2235 31.6022 74.4588 32.4631 76.0028 32.4631C77.6352 32.4631 78.9145 31.2398 78.9145 29.201C78.9145 27.0263 77.3705 25.214 74.7235 25.214C72.0324 25.214 69.4736 27.1169 67.6207 30.379H67.4001V25.6671H58.4003V27.6606H60.6062C61.4444 27.6606 61.7973 28.1137 61.7973 29.1104V45.1035C61.7973 46.1003 61.4444 46.5533 60.6062 46.5533H58.4003V48.5468H71.6794V46.5533Z" fill="#E25215"></path><path d="M104.5 37.1296C104.5 29.5635 99.3825 25.214 92.9415 25.214C86.4564 25.214 81.383 29.5635 81.383 37.1296C81.383 44.6505 86.4564 48.9999 92.9415 48.9999C99.3825 48.9999 104.5 44.6505 104.5 37.1296ZM87.4711 37.039C87.4711 30.5149 89.324 27.2075 92.9415 27.2075C96.5591 27.2075 98.412 30.5149 98.412 37.039C98.412 43.6537 96.5591 47.0064 92.9415 47.0064C89.324 47.0064 87.4711 43.6537 87.4711 37.039Z" fill="#E25215"></path><path d="M12.3343 9.87671L31.8071 38.7136L38.102 48.5468H35.0346H29.5478L8.40747 16.8926V43.6855C8.40747 45.2875 9.16056 46.0057 10.2364 46.0057H13.4102V48.5468H0.5V46.0057H3.35099C4.42684 46.0057 5.17993 45.2875 5.17993 43.6855V14.7381C5.17993 13.1361 4.42684 12.4179 3.35099 12.4179H0.5V9.87671H12.3343Z" fill="#E25215"></path><path d="M28.6046 9.63174L29.6009 9.54124C30.7632 9.42058 31.6432 9.26974 32.241 9.08874C32.8719 8.90774 33.3036 8.4854 33.5361 7.82173C33.7686 7.15807 34.3382 3.52396 34.3382 2.01562H35.5831C35.5831 3.52396 35.9935 7.15807 36.226 7.82173C36.4585 8.4854 36.8902 8.90774 37.5211 9.08874C38.1521 9.26974 39.0321 9.42058 40.1612 9.54124L41.1575 9.63174L41.1574 11.0485L40.1611 11.139C38.9988 11.2596 38.1188 11.4105 37.521 11.5915C36.8901 11.7725 36.4583 12.1948 36.2259 12.8585C35.9934 13.5221 35.4238 17.1562 35.4238 18.6646H34.1789C34.1789 17.1562 33.7684 13.5221 33.536 12.8585C33.3035 12.1948 32.8718 11.7725 32.2408 11.5915C31.6099 11.4105 30.7298 11.2596 29.6008 11.139L28.6045 11.0485L28.6046 9.63174Z" fill="#E25215"></path></svg>