<svg width="13" height="11" viewBox="0 0 13 11" fill="none" xmlns="http://www.w3.org/2000/svg">
<path d="M12.808 8.52275L8.04506 0.815732C7.57465 0.0450302 6.45743 -0.23022 5.63421 0.210181C5.34021 0.375331 5.105 0.595531 4.9874 0.815732L0.224502 8.52275C-0.245907 9.29345 0.0480986 10.3394 0.871315 10.7798C1.16532 10.945 1.45933 11 1.75333 11H11.2203C12.2199 11 12.9844 10.2293 12.9844 9.3485C13.0432 9.0182 12.9256 8.74295 12.808 8.52275ZM6.51623 8.798C6.16342 8.798 5.92822 8.5778 5.92822 8.24749C5.92822 7.91719 6.16342 7.69699 6.51623 7.69699C6.86904 7.69699 7.10424 7.91719 7.10424 8.24749C7.10424 8.5778 6.86904 8.798 6.51623 8.798ZM7.10424 6.04549C7.10424 6.37579 6.86904 6.59599 6.51623 6.59599C6.16342 6.59599 5.92822 6.37579 5.92822 6.04549V3.84349C5.92822 3.51319 6.16342 3.29299 6.51623 3.29299C6.86904 3.29299 7.10424 3.51319 7.10424 3.84349V6.04549Z" fill="#FEDC00"/>
</svg>
